<?xml version="1.0" standalone="no"?>
<!DOCTYPE svg PUBLIC "-//W3C//DTD SVG 20010904//EN"
 "http://www.w3.org/TR/2001/REC-SVG-20010904/DTD/svg10.dtd">
<svg version="1.0" xmlns="http://www.w3.org/2000/svg"
 width="373.000000pt" height="386.000000pt" viewBox="0 0 373.000000 386.000000"
 preserveAspectRatio="xMidYMid meet">

<g transform="translate(0.000000,386.000000) scale(0.100000,-0.100000)"
fill="#000000" stroke="none">
<path d="M1592 3804 c-337 -49 -708 -212 -957 -419 -271 -226 -454 -478 -589
-814 l-46 -113 1 -227 c2 -200 3 -215 11 -136 19 194 88 433 175 613 47 97 65
116 86 89 11 -14 18 -13 70 13 32 15 64 34 73 41 25 20 29 0 5 -25 -33 -35 -9
-41 44 -11 25 14 61 25 80 25 18 0 37 5 40 10 3 6 10 10 16 10 16 0 10 -30
-13 -60 -12 -16 -19 -33 -15 -36 4 -4 27 -1 52 6 36 10 48 10 60 0 8 -7 29
-10 45 -8 23 4 34 0 41 -15 9 -16 19 -18 57 -14 26 2 57 8 70 12 30 10 28 -3
-8 -45 -35 -41 -34 -55 5 -55 20 0 30 -7 37 -25 10 -26 -7 -993 -17 -1011 -4
-5 -11 -100 -16 -212 -16 -342 -31 -471 -85 -727 -9 -41 -18 -87 -21 -103 -7
-37 -25 -44 -106 -39 l-67 4 -83 81 c-284 281 -478 686 -522 1087 l-13 115 -1
-231 -1 -230 44 -110 c164 -412 403 -715 735 -933 93 -61 257 -145 308 -158
15 -3 55 -18 88 -33 33 -15 89 -34 125 -44 125 -33 175 -47 221 -62 36 -11
109 -14 315 -14 l269 0 152 40 c83 21 196 56 250 75 190 71 472 244 604 373
24 23 47 42 50 42 13 0 163 178 231 274 194 272 330 651 327 909 0 52 -16 128
-18 90 -1 -7 -5 -13 -11 -13 -18 0 -10 71 16 144 87 247 -71 760 -350 1131
-351 467 -942 757 -1531 753 -77 0 -182 -7 -233 -14z m556 -88 c110 -19 192
-46 192 -62 0 -7 6 -15 13 -17 6 -3 -5 -3 -25 0 -23 3 -44 1 -52 -6 -11 -9
-20 -9 -35 -2 -28 15 -51 14 -51 -4 0 -12 -19 -15 -102 -16 -57 0 -113 0 -125
-1 -27 0 -30 -9 -25 -86 3 -52 6 -61 18 -51 10 8 11 16 3 31 -11 21 -3 78 12
78 5 0 9 -22 9 -48 0 -43 4 -51 33 -73 32 -24 93 -59 102 -59 3 0 5 11 5 25 0
14 5 25 11 25 7 0 9 -11 6 -30 -5 -22 -3 -30 8 -30 8 0 15 7 15 15 0 11 11 15
39 15 22 0 52 5 68 12 25 10 26 12 8 16 -28 6 -30 13 -27 77 4 61 25 73 30 17
3 -34 22 -35 22 -1 0 23 15 25 24 3 4 -9 9 -14 13 -11 3 4 12 2 18 -3 8 -7 21
-5 41 5 16 8 44 15 62 15 38 0 40 23 4 28 -17 3 -22 10 -22 33 0 16 2 29 4 29
8 0 195 -84 251 -113 95 -49 193 -114 282 -189 46 -38 83 -72 83 -75 0 -3 -8
1 -17 8 -10 7 -31 24 -48 36 -16 13 -35 27 -41 32 -5 4 -20 14 -32 20 -41 22
-25 -16 21 -48 23 -16 56 -42 72 -56 17 -15 49 -40 73 -57 40 -28 54 -48 32
-48 -5 0 -10 7 -10 15 0 8 -7 15 -15 15 -8 0 -15 -4 -15 -10 0 -5 -6 -10 -14
-10 -17 0 -89 40 -94 52 -2 4 -8 8 -14 8 -6 0 -26 14 -45 30 -29 26 -41 30
-93 30 -32 0 -62 5 -65 10 -3 6 -15 10 -26 10 -22 0 -205 86 -255 119 l-31 21
-7 -41 c-4 -23 -12 -51 -18 -62 -6 -11 -12 -59 -13 -106 -1 -47 -7 -133 -13
-191 -6 -61 -10 -255 -8 -462 2 -197 -1 -358 -5 -358 -4 0 -22 18 -40 40 -46
56 -101 92 -204 136 -82 34 -100 38 -202 42 l-113 4 0 26 c0 29 -37 81 -78
110 -23 17 -132 46 -132 36 0 -2 25 -15 55 -29 66 -32 115 -87 115 -130 0 -17
-5 -36 -10 -41 -8 -8 28 -11 117 -11 70 0 148 -6 173 -13 73 -20 182 -79 218
-118 46 -51 58 -77 72 -158 12 -66 11 -97 -6 -246 -8 -72 6 -75 30 -8 19 52
45 72 30 23 -10 -32 -9 -78 1 -216 9 -116 -1 -137 -67 -137 l-40 0 22 36 c32
50 16 54 -33 8 -53 -50 -106 -84 -179 -113 -32 -13 -58 -25 -58 -27 0 -15 53
-84 64 -84 16 0 93 56 143 103 23 21 42 30 65 30 40 0 88 31 88 57 0 10 4 22
10 25 6 4 9 65 9 153 -2 171 2 192 38 192 39 0 123 -49 125 -74 3 -45 -4 -122
-13 -151 -27 -77 -89 -190 -159 -291 -43 -61 -90 -134 -106 -163 l-27 -53 -18
23 c-10 13 -19 32 -19 42 0 9 -4 17 -10 17 -5 0 -10 -5 -10 -11 0 -9 36 -109
60 -164 5 -11 20 -54 34 -95 15 -41 40 -97 56 -123 17 -27 30 -50 30 -53 0 -2
-19 -4 -41 -4 -61 0 -169 -35 -220 -72 -52 -37 -103 -88 -144 -143 -16 -22
-33 -42 -36 -45 -11 -9 -31 -52 -26 -56 2 -3 24 19 48 48 39 47 90 96 152 151
71 61 196 92 307 77 88 -12 101 -21 74 -52 -11 -13 -26 -35 -33 -49 -7 -14
-26 -33 -42 -43 -33 -20 -86 -66 -75 -66 12 0 51 22 58 34 5 8 10 8 18 0 15
-15 -4 -174 -22 -188 -38 -30 -138 -175 -164 -239 -10 -26 -27 -50 -38 -53
-20 -7 -214 12 -283 27 -23 5 -55 9 -71 9 -36 0 -92 19 -92 31 0 4 11 32 24
61 40 89 49 125 36 147 -6 11 -15 67 -21 123 -33 324 -42 389 -69 463 -43 119
-43 120 -219 300 -141 144 -215 234 -312 375 -107 155 -114 193 -39 222 25 9
71 17 104 17 56 1 58 0 52 -22 -6 -25 13 -97 39 -147 20 -38 45 -118 45 -143
0 -33 51 -96 96 -118 48 -23 85 -20 117 9 16 14 20 14 45 -4 15 -11 66 -40
114 -64 71 -36 90 -42 100 -32 10 10 10 19 -4 42 -16 28 -16 28 10 35 25 7 23
8 -23 22 -27 8 -83 30 -123 49 -83 39 -82 38 -82 22 -1 -7 -10 -24 -20 -37
-29 -34 -109 -35 -146 0 -31 28 -64 90 -64 118 0 11 -7 46 -16 78 -21 74 -28
113 -21 113 3 0 27 -11 53 -25 49 -26 74 -31 74 -16 0 11 -38 38 -92 66 -39
20 -47 42 -26 63 18 18 40 14 71 -11 16 -12 41 -32 57 -45 35 -27 40 -28 40
-1 0 12 -8 23 -20 26 -23 6 -27 23 -5 23 22 0 18 16 -7 35 -21 15 -22 17 -5
26 21 12 22 35 2 43 -22 8 -18 26 5 26 15 0 20 7 20 28 0 16 12 40 29 59 l29
32 126 -5 c126 -5 151 1 99 25 -25 11 -26 14 -10 23 10 5 30 7 45 4 37 -8 61
8 46 31 -14 23 -44 29 -44 9 0 -22 -17 -29 -40 -16 -26 14 -26 40 -1 40 27 0
33 14 20 44 -14 30 -39 35 -39 7 0 -11 -9 -26 -19 -33 -10 -8 -21 -25 -23 -38
-4 -33 -42 -35 -46 -2 -2 14 2 22 12 22 20 0 31 19 17 33 -6 6 -11 19 -11 28
0 10 -6 19 -12 22 -23 7 -38 -4 -38 -29 0 -17 -6 -24 -20 -24 -21 0 -27 24 -9
36 23 14 -32 35 -136 52 -27 5 -41 13 -43 25 -2 10 3 17 11 17 8 0 22 9 32 20
17 18 17 20 1 20 -9 0 -32 16 -50 36 -32 35 -64 40 -52 8 3 -7 1 -16 -4 -19
-14 -8 -40 6 -40 22 0 11 -7 14 -21 10 -22 -6 -42 24 -20 31 7 2 24 15 38 28
14 13 30 24 34 24 5 0 9 5 9 11 0 6 -8 8 -19 4 -13 -4 -23 0 -29 12 -9 16 -11
15 -17 -10 -6 -21 -12 -26 -26 -22 -11 3 -28 8 -39 11 -16 4 -20 1 -20 -17 0
-17 3 -19 14 -10 11 9 15 9 18 -1 3 -7 -10 -27 -27 -45 -58 -60 -80 -116 -78
-202 1 -42 7 -87 13 -101 20 -43 50 -95 50 -86 0 22 28 -18 33 -48 6 -41 -2
-116 -14 -116 -4 0 -11 21 -15 48 -7 46 -7 46 -16 17 -5 -16 -6 -44 -3 -62 5
-28 2 -34 -24 -48 -17 -8 -37 -15 -45 -15 -31 0 -85 -34 -96 -61 -14 -32 1
-72 67 -180 31 -51 42 -81 47 -130 11 -97 18 -123 27 -108 13 21 23 2 24 -44
1 -32 5 -43 19 -45 16 -3 18 1 13 25 -3 16 -2 35 3 43 14 23 33 -37 22 -69
-11 -31 -5 -51 14 -51 16 0 19 -16 4 -25 -12 -8 -13 -55 -1 -74 12 -19 18 -3
20 54 1 43 3 66 10 109 2 14 31 -15 31 -31 0 -8 8 -13 18 -11 14 3 18 -7 23
-62 6 -72 16 -110 28 -110 11 0 11 81 0 101 -14 26 2 30 22 5 12 -15 16 -35
14 -62 -15 -156 -17 -234 -7 -234 7 0 12 16 12 38 0 20 5 44 10 52 8 12 10 9
10 -12 0 -18 5 -28 15 -28 12 0 14 9 9 42 -3 24 -10 56 -15 72 -12 37 -12 96
0 96 15 0 32 -62 34 -126 2 -37 7 -59 16 -62 9 -3 12 6 11 34 -3 67 -1 89 9
78 5 -5 12 -34 14 -64 3 -30 12 -82 20 -115 l15 -60 1 58 c1 50 11 71 24 50 3
-5 10 -57 16 -116 7 -60 17 -120 23 -135 6 -15 10 -61 9 -103 -1 -42 3 -106 9
-144 9 -57 8 -69 -4 -79 -8 -6 -16 -29 -18 -50 -2 -22 -9 -41 -15 -44 -10 -3
-13 15 -13 68 0 45 -4 69 -10 65 -5 -3 -10 -19 -10 -34 0 -16 -3 -43 -6 -61
l-7 -32 -13 23 c-13 24 -13 24 -14 -9 0 -18 7 -49 15 -69 20 -47 20 -49 -15
-70 -16 -9 -30 -23 -30 -30 0 -18 10 -16 36 8 27 25 61 18 74 -15 6 -16 22
-26 57 -35 26 -7 64 -16 84 -22 20 -5 58 -9 85 -9 27 -1 63 -7 79 -14 28 -12
24 -14 -69 -21 -171 -13 -393 9 -573 56 -56 15 -83 27 -83 37 0 12 3 12 15 2
12 -10 17 -8 26 13 7 16 8 31 2 42 -6 10 -8 48 -5 86 4 58 2 69 -11 69 -9 0
-24 -12 -34 -26 -10 -14 -25 -34 -34 -43 -10 -12 -14 -30 -11 -54 3 -23 0 -37
-7 -37 -6 0 -11 16 -11 35 0 39 -7 43 -26 18 -16 -23 -29 -11 -15 15 6 12 10
31 10 44 l-2 23 -4 -22 c-6 -30 -27 -29 -47 2 -27 42 -38 31 -31 -30 4 -30 3
-55 -1 -55 -5 0 -22 12 -37 26 -24 22 -27 30 -21 62 4 20 11 45 15 54 12 23
11 58 -1 58 -5 0 -10 -12 -10 -27 0 -25 0 -26 -20 -8 -11 10 -20 24 -20 32 0
8 -5 11 -10 8 -15 -9 -12 -43 3 -52 19 -11 32 -66 16 -61 -7 2 -16 11 -20 19
-4 8 -15 31 -25 52 l-19 38 -3 -30 c-2 -16 2 -39 8 -51 7 -13 8 -26 1 -38 -8
-14 -10 -15 -15 -2 -3 8 -13 33 -21 55 l-15 40 4 -55 5 -55 -27 30 c-16 17
-39 31 -52 33 -29 3 -52 21 -44 34 4 6 10 24 14 42 5 17 20 75 34 129 14 54
30 132 37 175 35 249 43 320 58 527 6 77 16 199 22 270 6 72 11 276 10 455 -2
390 8 702 21 693 15 -9 28 18 28 60 0 23 4 36 10 32 6 -3 10 -20 10 -36 0 -18
4 -28 10 -24 6 3 10 24 10 46 0 21 5 39 10 39 6 0 10 -30 10 -70 0 -40 4 -70
10 -70 6 0 10 32 10 75 0 41 -4 75 -9 75 -6 0 -12 46 -15 103 -3 56 -8 148
-12 205 -3 66 -2 102 5 102 15 0 20 -30 40 -275 4 -55 9 -82 10 -60 3 92 14
174 22 169 5 -3 9 -52 9 -110 0 -82 3 -109 16 -121 21 -21 43 -1 24 22 -20 24
-17 150 4 173 9 10 16 29 16 43 0 13 9 35 20 49 17 21 21 23 29 10 8 -12 13
-12 30 4 12 11 21 26 21 35 1 13 3 13 15 -3 14 -18 15 -18 25 10 l11 29 21
-28 c16 -23 23 -25 35 -15 12 9 16 9 24 -3 5 -8 9 -21 9 -29 1 -12 3 -11 11 3
5 9 17 17 24 17 8 0 15 6 16 13 0 6 5 73 11 147 14 181 16 331 3 327 -5 -1 -9
-15 -7 -30 1 -16 -2 -36 -8 -45 -7 -13 -9 -4 -10 36 0 53 -11 66 -29 35 -10
-16 -11 -16 -17 5 -3 12 -10 22 -15 22 -12 0 -11 -68 3 -151 8 -52 8 -75 0
-92 -6 -12 -13 -38 -14 -57 -2 -25 -8 -36 -21 -38 -15 -3 -18 0 -12 16 3 12 5
54 5 94 -1 40 0 93 1 118 2 25 3 64 2 87 0 40 1 42 41 51 35 9 100 20 221 36
63 9 414 -4 493 -18z m247 -66 c3 -5 2 -10 -4 -10 -5 0 -13 5 -16 10 -3 6 -2
10 4 10 5 0 13 -4 16 -10z m-1105 -42 c0 -24 -3 -81 -7 -128 -6 -76 -8 -81
-14 -45 -5 22 -8 79 -8 128 -1 71 2 87 14 87 11 0 15 -11 15 -42z m27 -10 c-3
-7 -5 -2 -5 12 0 14 2 19 5 13 2 -7 2 -19 0 -25z m1093 12 c0 -5 -4 -10 -10
-10 -5 0 -10 5 -10 10 0 6 5 10 10 10 6 0 10 -4 10 -10z m-187 -62 l-11 -33
-1 45 c-1 33 2 41 11 32 8 -8 8 -20 1 -44z m-193 2 c0 -11 -4 -20 -10 -20 -5
0 -10 9 -10 20 0 11 5 20 10 20 6 0 10 -9 10 -20z m154 -26 c6 -48 -8 -94 -25
-77 -11 11 0 123 11 123 4 0 10 -21 14 -46z m-1157 -36 c-2 -13 -4 -3 -4 22 0
25 2 35 4 23 2 -13 2 -33 0 -45z m1040 10 c-3 -8 -6 -5 -6 6 -1 11 2 17 5 13
3 -3 4 -12 1 -19z m-1104 -20 c3 -12 3 -26 0 -31 -7 -12 -33 20 -33 40 0 22
27 15 33 -9z m271 -65 c5 -42 3 -63 -4 -63 -6 0 -10 27 -10 67 0 81 5 79 14
-4z m-111 -76 c-7 -12 -32 25 -33 48 0 16 4 14 19 -10 10 -16 16 -34 14 -38z
m224 6 c4 -12 -34 -29 -44 -19 -3 3 -3 12 1 21 7 18 37 17 43 -2z m-357 -145
c0 -78 -17 -85 -20 -8 -3 67 -1 80 10 80 6 0 10 -31 10 -72z m377 50 c-3 -8
-6 -5 -6 6 -1 11 2 17 5 13 3 -3 4 -12 1 -19z m73 -23 c0 -19 -4 -35 -10 -35
-5 0 -10 16 -10 35 0 19 5 35 10 35 6 0 10 -16 10 -35z m1085 21 c15 -8 22
-17 16 -20 -6 -4 -22 1 -36 10 -41 27 -27 34 20 10z m-1494 -71 c-5 -28 -9
-43 -10 -35 -11 84 -8 111 10 93 4 -4 4 -31 0 -58z m1812 53 c4 -10 8 -10 15
1 7 9 16 11 28 6 17 -8 17 -9 -3 -12 -13 -3 -23 -8 -23 -13 0 -4 -11 -3 -25 3
-14 7 -25 15 -25 20 0 12 28 8 33 -5z m-2184 -49 c-13 -10 -31 -19 -40 -19 -9
0 -19 -6 -22 -14 -3 -8 -16 -17 -29 -20 -13 -2 -6 -4 15 -2 20 1 37 1 37 0 0
-35 -59 -46 -95 -18 -19 14 -19 16 -2 25 17 10 17 12 1 23 -13 10 -14 15 -5
21 7 4 18 2 24 -4 12 -12 54 -15 59 -3 6 13 62 41 72 35 5 -3 -2 -14 -15 -24z
m831 17 c0 -8 -4 -18 -10 -21 -5 -3 -10 3 -10 14 0 12 5 21 10 21 6 0 10 -6
10 -14z m1730 -90 c0 -11 -19 -15 -25 -6 -3 5 1 10 9 10 9 0 16 -2 16 -4z
m-318 -29 c21 -7 41 -16 44 -20 4 -4 21 -7 39 -7 17 0 36 -5 43 -12 9 -9 20
-9 47 1 28 10 43 10 71 1 20 -7 59 -10 86 -8 46 5 51 3 75 -29 14 -18 23 -36
20 -40 -4 -3 -47 0 -97 7 -64 9 -99 20 -122 36 -24 18 -35 21 -45 12 -10 -8
-24 -8 -56 2 -23 8 -47 17 -53 22 -6 4 -25 5 -41 2 -23 -5 -36 0 -59 20 -26
22 -27 25 -9 26 11 0 37 -6 57 -13z m-2424 -47 c6 0 12 -4 12 -10 0 -16 -46
-11 -61 7 -13 15 -11 16 11 10 14 -4 31 -7 38 -7z m2052 -30 c0 -5 -4 -10 -9
-10 -6 0 -13 5 -16 10 -3 6 1 10 9 10 9 0 16 -4 16 -10z m-2095 -23 c19 -4 19
-5 -1 -6 -12 0 -28 7 -35 17 -12 15 -12 16 1 6 8 -7 24 -14 35 -17z m625 -59
c0 -27 -4 -48 -10 -48 -6 0 -10 27 -10 63 0 44 3 58 10 47 5 -8 10 -36 10 -62z
m1514 57 c11 -8 16 -18 11 -22 -4 -5 -10 -2 -12 5 -3 6 -11 12 -19 12 -8 0
-14 5 -14 10 0 14 11 12 34 -5z m413 -46 c58 -51 61 -57 34 -75 -26 -19 -27
-30 -1 -37 17 -4 20 -14 20 -60 0 -64 25 -117 55 -117 13 0 30 -17 47 -45 21
-35 35 -46 70 -56 24 -7 52 -20 63 -30 26 -22 80 -49 99 -49 8 0 20 9 26 21 9
16 14 18 26 8 8 -6 18 -8 22 -4 4 4 -2 12 -12 19 -11 6 -37 26 -58 45 -44 39
-60 34 -34 -10 12 -21 15 -34 8 -41 -13 -13 -85 52 -114 103 -23 41 -38 43
-38 3 0 -13 -4 -24 -10 -24 -13 0 -60 98 -60 126 0 25 -16 41 -22 22 -2 -6
-12 -9 -21 -5 -21 8 -23 65 -3 92 13 18 14 18 51 -5 54 -33 41 -16 -52 73 -79
75 -94 103 -27 52 40 -30 54 -32 54 -5 0 24 -7 24 115 3 139 -23 164 -41 232
-168 32 -61 51 -108 48 -121 -3 -12 4 -27 18 -40 l22 -19 -23 -3 c-13 -2 -37
1 -54 7 -47 17 -54 -2 -13 -33 35 -27 46 -60 23 -69 -7 -3 4 -6 25 -6 39 -1
45 7 25 39 -7 10 -9 22 -6 26 18 18 39 -12 62 -88 119 -393 111 -787 -24
-1173 -56 -160 -188 -400 -277 -503 l-28 -32 -59 31 c-81 43 -165 50 -224 20
-23 -12 -42 -17 -42 -12 0 33 -120 54 -194 35 -56 -15 -62 -13 -68 18 -3 13
-17 70 -32 128 -40 156 -43 170 -57 235 -6 33 -18 85 -25 115 -8 30 -14 89
-14 131 0 65 5 87 34 150 39 86 70 202 62 234 -8 32 -63 83 -105 96 -20 6 -39
14 -44 18 -19 18 -36 133 -46 306 -11 183 -15 565 -7 565 2 0 24 -11 47 -25
45 -25 85 -32 91 -15 4 11 116 17 143 6 11 -4 4 7 -18 26 -42 38 -50 63 -14
52 52 -16 88 -56 65 -70 -6 -4 -1 -12 13 -20 35 -18 54 0 33 31 -19 29 -11 34
56 33 48 0 57 3 82 31 35 39 35 47 -2 66 -30 15 -33 35 -5 35 8 0 35 -19 62
-41z m-517 -15 c0 -18 -26 -18 -33 0 -3 8 -3 16 0 19 9 10 33 -5 33 -19z m93
14 c29 -14 36 -28 13 -28 -16 0 -66 39 -50 40 5 0 22 -6 37 -12z m-2203 -58
c0 -5 -4 -10 -10 -10 -5 0 -10 5 -10 10 0 6 5 10 10 10 6 0 10 -4 10 -10z
m2250 -20 c0 -5 -4 -10 -10 -10 -5 0 -10 5 -10 10 0 6 5 10 10 10 6 0 10 -4
10 -10z m-1280 -376 c0 -8 -9 -14 -20 -14 -22 0 -26 10 -8 28 13 13 28 7 28
-14z m157 -35 c2 -26 -1 -30 -20 -27 -16 2 -23 11 -25 31 -3 23 0 27 20 27 19
0 23 -6 25 -31z m-107 6 c0 -8 -7 -15 -15 -15 -8 0 -15 7 -15 15 0 8 7 15 15
15 8 0 15 -7 15 -15z m48 -47 c19 -19 14 -28 -18 -28 -23 0 -30 4 -30 20 0 23
29 27 48 8z m60 -56 c3 -9 -3 -13 -19 -10 -12 1 -24 9 -27 16 -3 9 3 13 19 10
12 -1 24 -9 27 -16z m-198 -18 c0 -8 -7 -14 -15 -14 -15 0 -21 21 -9 33 10 9
24 -2 24 -19z m78 14 c19 -19 14 -28 -13 -28 -18 0 -25 5 -25 20 0 22 20 26
38 8z m248 -55 c-11 -11 -19 6 -11 24 8 17 8 17 12 0 3 -10 2 -21 -1 -24z
m-86 11 c0 -9 -5 -14 -12 -12 -18 6 -21 28 -4 28 9 0 16 -7 16 -16z m-106 0
c25 -9 19 -24 -9 -24 -24 0 -32 10 -18 23 8 8 8 8 27 1z m-79 -33 c3 -5 1 -13
-5 -16 -15 -9 -43 3 -35 15 8 13 32 13 40 1z m145 -5 c0 -3 -4 -8 -10 -11 -5
-3 -10 -1 -10 4 0 6 5 11 10 11 6 0 10 -2 10 -4z m118 -24 c2 -14 -2 -22 -12
-22 -19 0 -29 17 -22 36 8 22 30 12 34 -14z m92 -12 c0 -11 -7 -20 -15 -20 -8
0 -15 2 -15 4 0 2 -3 11 -6 20 -4 12 0 16 15 16 14 0 21 -6 21 -20z m-309 -5
c-1 -15 -24 -12 -29 3 -3 9 2 13 12 10 10 -1 17 -7 17 -13z m304 -46 c-8 -12
-35 -12 -35 0 0 11 22 20 33 14 4 -2 5 -9 2 -14z m85 6 c0 -8 -9 -15 -20 -15
-20 0 -26 11 -13 23 12 13 33 7 33 -8z m-252 -12 c-5 -26 -38 -29 -38 -4 0 15
6 21 21 21 14 0 19 -5 17 -17z m82 3 c0 -20 -19 -31 -32 -18 -6 6 -7 15 -4 21
10 16 36 13 36 -3z m-273 -88 c-3 -8 -6 -5 -6 6 -1 11 2 17 5 13 3 -3 4 -12 1
-19z m153 8 c0 -8 -4 -17 -9 -20 -10 -7 -23 19 -14 28 11 11 23 6 23 -8z m65
-16 c-5 -8 -11 -8 -17 -2 -6 6 -7 16 -3 22 5 8 11 8 17 2 6 -6 7 -16 3 -22z
m-165 -25 c0 -14 -4 -25 -10 -25 -5 0 -10 11 -10 25 0 14 5 25 10 25 6 0 10
-11 10 -25z m98 -32 c-4 -22 -22 -20 -26 1 -2 10 3 16 13 16 10 0 15 -7 13
-17z m-117 -76 c-13 -13 -21 5 -14 33 l6 24 9 -24 c5 -14 5 -27 -1 -33z m109
18 c0 -8 -4 -15 -10 -15 -5 0 -10 7 -10 15 0 8 5 15 10 15 6 0 10 -7 10 -15z
m308 -495 c27 -17 43 -40 27 -40 -7 0 -85 52 -85 56 0 10 28 2 58 -16z m442
12 c0 -9 -83 -72 -94 -72 -18 0 -1 23 37 49 44 31 57 37 57 23z m270 -108 c0
-45 15 -114 51 -235 10 -36 19 -75 19 -87 0 -11 16 -69 35 -128 20 -59 32
-111 27 -116 -13 -13 -53 -13 -109 1 -55 14 -69 31 -78 101 -7 54 -16 103 -22
120 -4 11 -8 8 -12 -9 -4 -14 -12 -26 -19 -29 -8 -2 -12 13 -12 54 0 58 -13
66 -23 14 -2 -14 -2 9 1 50 2 41 10 81 15 89 6 7 12 29 12 50 1 25 15 57 49
108 27 40 53 70 57 67 5 -3 9 -25 9 -50z m-843 -331 c-3 -10 -5 -2 -5 17 0 19
2 27 5 18 2 -10 2 -26 0 -35z m1267 -265 c23 -16 32 -19 45 -9 29 20 64 32 90
29 23 -3 26 -7 25 -40 -2 -45 12 -50 21 -8 7 33 29 39 60 16 17 -12 18 -17 7
-41 -7 -15 -10 -36 -6 -47 5 -16 -10 -36 -72 -95 -102 -97 -163 -140 -174
-123 -6 9 -9 6 -12 -11 -2 -17 -24 -38 -73 -71 -98 -65 -271 -151 -290 -144
-48 18 -85 262 -53 355 18 53 67 121 86 121 10 0 22 10 27 22 12 28 56 51 69
38 15 -15 26 -12 26 5 0 25 39 34 120 29 55 -3 83 -10 104 -26z m300 -47 c3
-4 -4 -17 -16 -27 -20 -18 -21 -18 -15 -1 4 10 7 23 7 28 0 11 17 12 24 0z
m-2464 -236 c8 -9 6 -17 -5 -29 -18 -18 -38 -11 -68 22 -17 19 -17 19 23 19
22 0 45 -5 50 -12z m1700 -173 c6 -27 18 -62 26 -77 17 -34 14 -38 -54 -64
-56 -22 -117 -27 -127 -11 -13 22 102 200 130 200 7 0 18 -22 25 -48z m-720
-34 c0 -7 -5 -20 -10 -28 -8 -12 -10 -9 -10 13 0 15 5 27 10 27 6 0 10 -6 10
-12z m-558 -68 c12 -11 17 -20 11 -20 -11 0 -43 27 -43 36 0 9 12 3 32 -16z"/>
<path d="M1737 3654 c-12 -13 -7 -78 8 -98 20 -26 19 -106 -1 -134 -15 -22
-15 -24 1 -36 19 -14 30 -103 15 -121 -4 -5 -10 -23 -12 -39 -4 -34 -22 -45
-32 -20 -4 11 -1 21 9 26 16 10 19 50 5 83 -6 17 -9 13 -14 -20 -4 -22 -11
-50 -17 -63 -5 -13 -9 -32 -9 -42 0 -24 -16 -26 -28 -4 -12 22 -21 7 -29 -53
-6 -47 -6 -48 14 -30 21 18 43 23 43 8 0 -5 13 -16 29 -24 28 -14 30 -14 36
11 6 23 8 24 22 10 10 -11 17 -43 20 -102 l6 -86 31 0 c17 0 55 -3 84 -7 46
-5 52 -4 46 11 -4 11 -1 16 10 16 19 0 19 1 7 33 -6 15 -21 27 -38 32 -15 3
-30 10 -33 13 -3 4 -23 16 -45 27 -30 15 -40 26 -40 45 0 20 7 26 40 36 31 9
39 15 36 30 -2 11 -6 55 -8 99 -5 84 -14 105 -43 105 -10 0 -21 7 -24 16 -3 9
-12 14 -20 11 -10 -4 -16 6 -20 33 -7 44 1 73 17 63 7 -4 8 0 4 11 -4 10 -7
45 -7 77 0 56 -2 60 -20 54 -15 -5 -22 -1 -28 15 -4 11 -11 18 -15 14z m129
-457 c-5 -48 -16 -42 -16 9 1 35 3 44 10 33 5 -8 8 -28 6 -42z m-46 2 c0 -16
-4 -29 -9 -29 -5 0 -9 15 -8 34 1 42 17 37 17 -5z m21 -232 c-8 -8 -11 -3 -11
19 1 25 2 27 11 11 8 -14 8 -22 0 -30z m66 -19 c-3 -8 -6 -5 -6 6 -1 11 2 17
5 13 3 -3 4 -12 1 -19z"/>
<path d="M1562 3565 l0 -90 10 64 c5 40 5 74 -1 90 -7 20 -9 4 -9 -64z"/>
<path d="M1605 3627 c-4 -11 -5 -64 -2 -118 5 -83 4 -99 -8 -99 -12 0 -15 -16
-15 -75 0 -59 -3 -75 -15 -75 -11 0 -14 13 -14 61 1 33 -2 63 -5 66 -3 4 -6
-7 -6 -23 -1 -16 -2 -51 -4 -77 -3 -43 -1 -50 20 -59 22 -10 24 -17 24 -83 0
-53 4 -76 15 -85 22 -18 31 -4 10 16 -13 14 -15 27 -10 63 4 25 12 52 18 59 8
10 8 15 0 20 -7 4 -11 38 -11 82 0 63 2 72 12 57 7 -9 11 -29 8 -45 -3 -19 -1
-24 6 -17 6 6 12 56 14 113 1 56 6 102 10 102 4 0 8 -19 8 -42 0 -24 5 -50 10
-58 12 -19 13 -13 11 92 0 58 3 77 14 82 13 5 22 56 10 56 -21 0 -57 -28 -62
-49 -6 -24 -7 -23 -18 14 -10 33 -14 37 -20 22z"/>
<path d="M1827 3613 c-4 -3 1 -19 10 -36 11 -22 14 -47 10 -89 -5 -51 -3 -59
11 -56 14 3 16 13 14 61 -3 37 0 57 7 57 7 0 11 -22 11 -56 0 -40 3 -55 13
-52 8 3 13 30 15 76 3 64 1 72 -18 82 -12 6 -24 9 -27 6 -3 -3 -13 -1 -23 4
-10 5 -20 7 -23 3z"/>
<path d="M1810 3444 c0 -8 5 -12 10 -9 6 4 8 11 5 16 -9 14 -15 11 -15 -7z"/>
<path d="M1993 3415 c0 -22 2 -30 4 -17 2 12 2 30 0 40 -3 9 -5 -1 -4 -23z"/>
<path d="M2570 3442 c0 -12 47 -32 75 -32 30 0 33 15 6 30 -24 12 -81 13 -81
2z"/>
<path d="M2303 3374 c-3 -9 -1 -31 5 -48 7 -18 12 -42 12 -53 0 -22 29 -53 50
-53 8 0 11 9 7 28 -3 16 0 40 8 55 14 28 10 34 -48 70 -25 16 -28 16 -34 1z
m47 -59 c7 -9 8 -15 2 -15 -5 0 -12 7 -16 15 -3 8 -4 15 -2 15 2 0 9 -7 16
-15z"/>
<path d="M2856 3342 c-5 -9 77 -82 92 -82 5 0 17 -9 27 -20 10 -11 22 -20 27
-20 5 0 18 -9 30 -20 20 -18 48 -27 48 -15 0 3 -19 17 -42 31 -24 15 -45 30
-48 34 -3 3 -22 18 -43 32 -21 14 -45 35 -53 47 -16 22 -29 27 -38 13z"/>
<path d="M1460 3010 c0 -5 -7 -10 -15 -10 -21 0 -19 -16 5 -40 27 -27 30 -26
30 20 0 22 -4 40 -10 40 -5 0 -10 -4 -10 -10z"/>
<path d="M2283 2975 c-3 -9 3 -25 13 -36 16 -17 19 -18 33 -5 13 14 13 18 -4
36 -22 24 -34 25 -42 5z"/>
<path d="M1330 2951 c0 -5 11 -22 25 -37 22 -24 25 -25 31 -9 4 10 3 25 -3 34
-11 18 -53 28 -53 12z"/>
<path d="M1294 2906 c-3 -7 -4 -33 -2 -57 2 -36 7 -44 23 -44 17 0 20 8 23 45
2 37 -1 47 -18 58 -17 10 -21 10 -26 -2z"/>
<path d="M1370 2861 c0 -11 5 -23 10 -26 6 -4 10 5 10 19 0 14 -4 26 -10 26
-5 0 -10 -9 -10 -19z"/>
<path d="M1135 2820 c-3 -5 -1 -10 4 -10 6 0 11 5 11 10 0 6 -2 10 -4 10 -3 0
-8 -4 -11 -10z"/>
<path d="M1290 2669 c0 -11 5 -17 10 -14 6 3 10 13 10 21 0 8 -4 14 -10 14 -5
0 -10 -9 -10 -21z"/>
<path d="M1596 2493 c-12 -12 -6 -33 9 -33 8 0 15 6 15 14 0 17 -14 28 -24 19z"/>
<path d="M1587 2414 c-9 -10 2 -24 19 -24 8 0 14 7 14 15 0 15 -21 21 -33 9z"/>
<path d="M1970 2291 c0 -14 18 -23 31 -15 8 4 7 9 -2 15 -18 11 -29 11 -29 0z"/>
<path d="M1985 2220 c-8 -13 20 -24 36 -15 8 6 7 10 -2 16 -18 11 -26 11 -34
-1z"/>
<path d="M1947 2173 c-4 -3 -7 -15 -7 -25 0 -15 8 -18 42 -18 l41 0 -23 25
c-23 25 -41 31 -53 18z"/>
<path d="M2077 2146 c-16 -13 -16 -14 9 -19 14 -2 35 -2 45 0 19 5 19 6 2 19
-23 17 -33 17 -56 0z"/>
<path d="M1757 1893 c-9 -15 17 -57 43 -71 39 -20 98 -8 133 26 39 40 26 62
-16 26 -25 -21 -38 -25 -70 -21 -21 3 -49 15 -62 27 -13 12 -25 18 -28 13z"/>
<path d="M2260 1887 c0 -18 -32 -47 -52 -47 -8 0 -23 9 -33 20 -21 24 -35 26
-35 6 0 -19 39 -46 66 -46 12 0 34 14 48 31 27 32 33 49 16 49 -5 0 -10 -6
-10 -13z"/>
<path d="M2090 1750 c-8 -5 -23 -11 -33 -14 -26 -8 -11 -26 23 -26 16 0 30 7
34 16 13 33 5 41 -24 24z"/>
<path d="M1606 989 c-4 -14 -14 -103 -22 -214 -2 -33 -6 -77 -8 -98 -3 -27 1
-44 12 -55 16 -16 17 -10 17 93 1 60 7 145 15 188 10 58 10 81 2 89 -8 8 -13
8 -16 -3z"/>
<path d="M1232 788 c-25 -157 -27 -194 -12 -203 9 -6 12 4 30 95 26 127 31
250 11 250 -3 0 -16 -64 -29 -142z"/>
<path d="M1120 794 c-6 -15 -10 -41 -10 -58 1 -17 -3 -49 -9 -71 -11 -42 -4
-115 10 -115 5 0 9 26 9 58 0 31 7 88 15 127 18 83 18 85 5 85 -6 0 -15 -12
-20 -26z"/>
<path d="M1620 806 c0 -9 5 -16 10 -16 6 0 10 4 10 9 0 6 -4 13 -10 16 -5 3
-10 -1 -10 -9z"/>
<path d="M1677 783 c-11 -10 -8 -43 3 -43 6 0 10 11 10 25 0 26 -2 29 -13 18z"/>
<path d="M1675 697 c-4 -10 -5 -21 -1 -24 10 -10 18 4 13 24 -4 17 -4 17 -12
0z"/>
<path d="M1652 550 c0 -19 2 -27 5 -17 2 9 2 25 0 35 -3 9 -5 1 -5 -18z"/>
<path d="M927 564 c-4 -4 -7 -14 -7 -23 0 -11 3 -12 11 -4 6 6 10 16 7 23 -2
6 -7 8 -11 4z"/>
<path d="M1023 530 c0 -25 2 -35 4 -22 2 12 2 32 0 45 -2 12 -4 2 -4 -23z"/>
<path d="M1702 515 c0 -16 2 -22 5 -12 2 9 2 23 0 30 -3 6 -5 -1 -5 -18z"/>
<path d="M884 482 c-16 -11 -49 -71 -42 -77 11 -11 59 46 56 66 -2 11 -8 15
-14 11z"/>
<path d="M1040 481 c0 -5 5 -13 10 -16 6 -3 10 -2 10 4 0 5 -4 13 -10 16 -5 3
-10 2 -10 -4z"/>
<path d="M1716 472 c-2 -4 -1 -14 5 -22 7 -12 9 -10 9 8 0 23 -5 28 -14 14z"/>
<path d="M2154 436 c-59 -39 -72 -61 -44 -76 28 -15 44 -12 67 13 17 18 53 82
53 94 0 11 -31 -2 -76 -31z m20 -37 c-19 -21 -34 -25 -34 -8 0 15 32 39 43 32
5 -3 1 -14 -9 -24z"/>
<path d="M1201 394 c0 -11 3 -14 6 -6 3 7 2 16 -1 19 -3 4 -6 -2 -5 -13z"/>
<path d="M1482 335 c-60 -54 -112 -129 -112 -162 0 -35 18 -28 35 15 17 40 64
94 75 87 5 -3 -4 -27 -18 -53 -16 -31 -23 -55 -18 -67 6 -16 11 -14 47 21 49
47 67 76 50 82 -15 5 -14 33 4 75 13 32 12 47 -6 47 -4 0 -29 -20 -57 -45z"/>
<path d="M2670 2602 c0 -13 14 -27 52 -56 38 -28 91 -37 109 -19 16 16 -8 28
-25 13 -18 -14 -60 -4 -81 20 -20 22 -4 36 24 20 11 -5 28 -10 38 -10 16 0 16
1 -2 14 -22 15 -115 30 -115 18z"/>
<path d="M3120 1511 c0 -13 49 -46 90 -61 41 -14 105 -2 105 20 0 16 -58 34
-63 20 -6 -17 -52 -11 -69 10 -18 20 -63 28 -63 11z"/>
<path d="M3417 1283 c-17 -16 -4 -33 33 -44 50 -15 60 -6 30 26 -23 24 -50 32
-63 18z"/>
<path d="M2391 1130 c0 -32 2 -40 9 -29 5 9 6 28 0 45 -8 27 -8 26 -9 -16z"/>
<path d="M2936 584 c-9 -24 -7 -62 4 -69 6 -4 10 12 10 39 0 48 -4 56 -14 30z"/>
<path d="M423 2700 c-107 -25 -154 -90 -65 -90 53 0 132 50 132 84 0 17 -16
19 -67 6z m27 -17 c0 -17 -36 -43 -59 -43 -28 0 -21 12 21 35 27 15 38 18 38
8z"/>
</g>
</svg>
