<?xml version="1.0" ?><svg data-name="Layer 1" id="Layer_1" viewBox="0 0 512 512" xmlns="http://www.w3.org/2000/svg"><title/><path d="M256,0C114.615,0,0,114.615,0,256S114.615,512,256,512,512,397.385,512,256,397.385,0,256,0ZM105.992,309.682a3.7,3.7,0,0,1-6.986,0C97.2,304.385,96,295.1,96,284.525s1.2-19.859,3.006-25.157a3.7,3.7,0,0,1,6.986,0c1.807,5.3,3,14.583,3,25.157S107.8,304.385,105.992,309.682Zm21.895,12.378a3.474,3.474,0,0,1-6.738,0c-1.876-7.715-3.129-21.672-3.129-37.619s1.253-29.9,3.129-37.619a3.474,3.474,0,0,1,6.738,0c1.877,7.715,3.13,21.672,3.13,37.619S129.764,314.345,127.887,322.06Zm22.338,3.087a3.675,3.675,0,0,1-7.167,0c-1.757-8.021-2.915-21.768-2.915-37.385s1.158-29.362,2.915-37.384a3.675,3.675,0,0,1,7.167,0c1.757,8.022,2.916,21.768,2.916,37.384S151.982,317.126,150.225,325.147Zm22.419-.346a3.689,3.689,0,0,1-7.279,0c-1.725-10.679-2.859-28.737-2.859-49.218s1.134-38.538,2.859-49.218a3.69,3.69,0,0,1,7.279,0c1.725,10.68,2.859,28.738,2.859,49.218S174.369,314.122,172.644,324.8Zm22.764-.083a4.08,4.08,0,0,1-8.079,0c-1.678-12.09-2.766-31.513-2.766-53.419s1.088-41.329,2.766-53.418a4.08,4.08,0,0,1,8.079,0c1.678,12.089,2.766,31.512,2.766,53.418S197.086,312.628,195.408,324.718Zm21.976-.254a4.12,4.12,0,0,1-8.165,0c-1.579-12-2.6-30.784-2.6-51.913s1.018-39.915,2.6-51.913a4.12,4.12,0,0,1,8.165,0c1.579,12,2.6,30.783,2.6,51.913S218.963,312.465,217.384,324.464Zm22.552-.157a4.164,4.164,0,0,1-8.273,0c-1.548-13.69-2.543-34.885-2.543-58.688s1-45,2.543-58.688a4.164,4.164,0,0,1,8.273,0c1.548,13.69,2.543,34.885,2.543,58.688S241.484,310.617,239.936,324.307Zm132.438,2.809H260.839a8.629,8.629,0,0,1-8.629-8.629l.007-117.866a11.663,11.663,0,0,1,7.025-10.683,74.4,74.4,0,0,1,102.1,51.338,43.629,43.629,0,1,1,11.036,85.84Z"/></svg>