<?xml version="1.0" encoding="utf-8"?>
<!-- Generator: Adobe Illustrator 27.5.0, SVG Export Plug-In . SVG Version: 6.00 Build 0)  -->
<svg version="1.1" id="Layer_1" xmlns="http://www.w3.org/2000/svg" xmlns:xlink="http://www.w3.org/1999/xlink" x="0px" y="0px"
	 viewBox="0 0 1036 1200" style="enable-background:new 0 0 1036 1200;" xml:space="preserve">
<style type="text/css">
	.st0{fill:#FFFFFF;}
</style>
<path class="st0" d="M817.7,763.3c0,120-95.8,217-217,217c-120,0-215.8-94.6-215.8-217c0-57.6,21.8-108.5,56.4-146.7L294.6,763.3
	l-77-77l165.5-163.7c22.4-22.4,33.9-51.5,33.9-83.6V233.6h108.5V439c0,63-22.4,116.4-66.1,160l-4.9,4.8
	c38.2-35.2,90.3-56.4,146.1-56.4C723.8,547.5,817.7,645.1,817.7,763.3z M719.5,763.3c0-64.3-53.3-116.4-118.8-116.4
	c-66.1,0-117.6,54.6-117.6,116.4c0,63.6,52.1,117.6,117.6,117.6C668.6,880.9,719.5,825.8,719.5,763.3z"/>
</svg>
